HIERARCHY
ROOT RootJoint
{
    OFFSET   0.000000   0.000000   0.000000
    CHANNELS 6 Xposition Yposition Zposition Xrotation Yrotation Zrotation
    JOINT pelvis_lowerback
    {
        OFFSET   0.000000   0.093605   0.000000
        CHANNELS 3 Xrotation Yrotation Zrotation
        JOINT lowerback_torso
        {
            OFFSET   0.000000   0.100000   0.000000
            CHANNELS 3 Xrotation Yrotation Zrotation
            JOINT torso_head
            {
                OFFSET   0.000000   0.282350   0.000000
                CHANNELS 3 Xrotation Yrotation Zrotation
                End Site
                {
                    OFFSET   0.000000   0.192650   0.000000
                }
            }
            JOINT rTorso_Clavicle
            {
                OFFSET  -0.001000   0.157500   0.000000
                CHANNELS 3 Xrotation Yrotation Zrotation
                JOINT rShoulder
                {
                    OFFSET  -0.117647   0.000000   0.000000
                    CHANNELS 3 Xrotation Yrotation Zrotation
                    JOINT rElbow
                    {
                        OFFSET  -0.245000   0.000000   0.000000
                        CHANNELS 3 Xrotation Yrotation Zrotation
                        JOINT rWrist
                        {
                            OFFSET  -0.240000   0.000000   0.000000
                            CHANNELS 3 Xrotation Yrotation Zrotation
                            End Site
                            {
                                OFFSET  -0.116353  -0.002500   0.000000
                            }
                        }
                    }
                }
            }
            JOINT lTorso_Clavicle
            {
                OFFSET   0.001000   0.157500   0.000000
                CHANNELS 3 Xrotation Yrotation Zrotation
                JOINT lShoulder
                {
                    OFFSET   0.117647   0.000000   0.000000
                    CHANNELS 3 Xrotation Yrotation Zrotation
                    JOINT lElbow
                    {
                        OFFSET   0.245000   0.000000   0.000000
                        CHANNELS 3 Xrotation Yrotation Zrotation
                        JOINT lWrist
                        {
                            OFFSET   0.240000   0.000000   0.000000
                            CHANNELS 3 Xrotation Yrotation Zrotation
                            End Site
                            {
                                OFFSET   0.116353  -0.002500   0.000000
                            }
                        }
                    }
                }
            }
        }
    }
    JOINT rHip
    {
        OFFSET  -0.100000  -0.051395   0.000000
        CHANNELS 3 Xrotation Yrotation Zrotation
        JOINT rKnee
        {
            OFFSET   0.000000  -0.410000   0.000000
            CHANNELS 3 Xrotation Yrotation Zrotation
            JOINT rAnkle
            {
                OFFSET   0.000000  -0.390000   0.000000
                CHANNELS 3 Xrotation Yrotation Zrotation
                JOINT rToeJoint
                {
                    OFFSET   0.000000  -0.050000   0.130000
                    CHANNELS 3 Xrotation Yrotation Zrotation
                    End Site
                    {
                        OFFSET  -0.010000   0.002000   0.060000
                    }
                }
            }
        }
    }
    JOINT lHip
    {
        OFFSET   0.100000  -0.051395   0.000000
        CHANNELS 3 Xrotation Yrotation Zrotation
        JOINT lKnee
        {
            OFFSET   0.000000  -0.410000   0.000000
            CHANNELS 3 Xrotation Yrotation Zrotation
            JOINT lAnkle
            {
                OFFSET   0.000000  -0.390000   0.000000
                CHANNELS 3 Xrotation Yrotation Zrotation
                JOINT lToeJoint
                {
                    OFFSET   0.000000  -0.050000   0.130000
                    CHANNELS 3 Xrotation Yrotation Zrotation
                    End Site
                    {
                        OFFSET   0.010000   0.002000   0.060000
                    }
                }
            }
        }
    }
}
MOTION
Frames: 5
Frame Time:   0.008333
 -4.178719   0.604473   2.914748  87.005724 -14.007079 112.571641  77.389731  -0.107839  28.188300  -0.333396   9.282855 -12.914419   1.807164  -3.432492 -31.547011   7.794019  44.579421 -34.757641 -21.343496  -0.535990  21.739211  -0.028527   3.100355   0.036499  15.028868  14.552563  24.076199 -15.651745 -39.735225   6.601304  -1.650302  -9.262110  -2.183144  -0.008900  -2.291657  -0.016056  -1.787074 -13.214176 -40.892539 -76.604992 -16.411751 -16.501973 134.023588   0.071447  -0.031247 -66.646319  15.668884  -3.844373  10.036520   0.003744   0.009632 -108.102972  24.967281  17.189601 136.184339   0.032635   0.021095 -71.133201  10.029792  13.891734   0.638615  -0.020376   0.006318
 -4.184945   0.597779   2.906331  85.769958 -13.095476 112.791268  79.125305  -1.440261  29.155627  -2.001170  10.539641 -13.398969   2.689939  -4.306406 -32.342710  10.635009  43.384953 -37.891020 -19.853464  -0.016215  22.511477  -0.022187   3.317335   0.020326  14.559144  15.434426  25.322684 -14.556545 -39.689444   7.295500  -0.753463  -7.971847  -2.350114  -0.019414  -1.156078  -0.031748  -1.466273 -12.648924 -37.663250 -77.659311 -17.216737 -17.815339 136.786499   0.030058  -0.021494 -66.302576  17.855738  -4.184361  10.029246   0.003008   0.007620 -107.693476  24.621648  16.787429 137.541768   0.022317   0.035056 -70.836418  11.680071  12.980734   1.016488  -0.020070   0.009231
 -4.191494   0.590541   2.898049  84.643660 -11.949691 113.354391  80.824860  -2.761109  30.061760  -3.765356  11.813775 -13.977147   3.209584  -5.028641 -33.231763  13.432589  42.127805 -40.590374 -18.276513   0.322290  22.788451  -0.017663   3.355598   0.014640  14.583513  15.275165  24.223074 -13.447744 -39.506579   7.903150   0.167040  -6.755664  -2.520183  -0.025286  -0.277163  -0.041042  -1.234338 -12.060106 -33.970287 -79.161113 -17.512764 -18.897061 139.625424   0.001520  -0.009094 -65.873749  19.928231  -4.502609  10.023422   0.002426   0.006018 -106.888157  23.919705  16.319917 138.906533   0.008209   0.052457 -70.554912  13.247544  12.106043   1.378561  -0.022248   0.010185
 -4.198397   0.582672   2.889778  83.574584 -10.740459 114.042575  82.477224  -3.941741  30.947033  -5.424473  13.055458 -14.502044   3.646704  -5.690627 -34.073253  15.856374  40.761091 -42.942741 -16.760885   0.526603  22.976397  -0.014214   3.343778   0.012140  14.813034  14.637735  22.717851 -12.382597 -39.249509   8.426838   1.050736  -5.564170  -2.717235  -0.029308   0.526395  -0.048038  -1.109393 -11.528785 -30.342148 -80.839134 -17.702946 -19.865132 142.365617  -0.019155   0.004831 -65.459354  21.862801  -4.809708  10.018756   0.001968   0.004751 -105.774453  23.165652  15.793185 140.198770  -0.003443   0.067015 -70.291172  14.712232  11.259895   1.721191  -0.024633   0.010501
 -4.205718   0.573808   2.881536  82.609231  -9.474589 114.353379  84.095065  -4.746444  31.882058  -6.854880  14.427373 -14.932823   4.049729  -6.314518 -34.852874  18.015051  39.457061 -45.055167 -15.363096   0.689276  23.127125  -0.011871   3.259436   0.012758  15.178295  13.623713  21.167719 -11.363410 -38.883761   8.883537   1.905267  -4.368621  -2.949668  -0.031469   1.265849  -0.053525  -1.079764 -11.075992 -26.982996 -81.703364 -17.367975 -20.613657 144.147109  -0.020377  -0.003118 -64.264026  23.581654  -5.712472  10.015022   0.001545   0.003763 -105.364418  22.921644  15.674177 141.793601  -0.003026   0.074338 -70.009936  16.268222  10.196113   2.094606  -0.023497   0.013022
